<svg xmlns="http://www.w3.org/2000/svg" xmlns:xlink="http://www.w3.org/1999/xlink" class="httpgd" width="437.00" height="591.00" viewBox="0 0 437.00 591.00">
<defs>
<clipPath id="c0-8587596e-8f7b-43e3-adaa-680c689c18dd"><rect x="0.00" y="0.00" width="437.00" height="591.00"/></clipPath>
<clipPath id="c1-8587596e-8f7b-43e3-adaa-680c689c18dd"><rect x="59.04" y="59.04" width="347.72" height="458.52"/></clipPath>
</defs>
<rect width="100%" height="100%" stroke="none" fill="#FFFFFF"/>
<g clip-path="url(#c0-8587596e-8f7b-43e3-adaa-680c689c18dd)">
</g><g clip-path="url(#c1-8587596e-8f7b-43e3-adaa-680c689c18dd)">
<rect x="-166.90" y="59.04" width="799.60" height="458.52" stroke-width="0.75" stroke="#FFFFFF" stroke-linecap="round" stroke-linejoin="round" fill="#FFFFFF"/>
<path d="M201.76 488.21L195.82 484.43L190.12 480.80L188.23 480.80L179.83 481.53L179.59 481.21L178.12 479.13L176.82 478.48L176.04 478.81L175.52 479.42L174.62 479.31L170.85 475.96L169.31 475.48L167.16 475.92L164.64 477.73L163.53 479.94L163.87 481.21L165.18 481.76L168.61 481.39L169.12 481.75L169.23 482.47L168.86 483.16L166.06 483.74L165.26 484.57L164.44 484.78L163.92 484.91L160.96 484.03L156.53 484.03L152.97 485.58L147.28 486.21L139.47 485.90L136.66 484.75L134.95 484.05L133.72 480.64L134.03 475.58L135.90 468.87L136.42 463.94L135.59 460.79L136.70 456.06L139.73 449.75L141.76 443.08L142.77 436.04L144.25 431.44L147.14 428.22L154.00 419.17L154.56 418.49L154.37 413.96L152.52 413.32L149.82 412.02L142.92 410.41L136.50 409.38L133.59 408.09L131.03 404.66L129.45 404.62L126.35 405.84L122.48 406.67L119.67 405.95L117.91 406.09L116.92 406.72L116.42 406.16L115.71 403.22L114.24 402.45L111.95 401.78L110.53 402.07L109.55 403.53L108.03 404.56L106.64 404.23L102.28 397.42L101.16 395.91L100.87 394.53L99.78 391.99L97.18 389.46L94.59 388.66L93.30 388.94L93.44 385.79L94.46 381.22L95.43 378.84L96.72 376.88L98.09 375.52L98.40 373.07L98.18 370.74L96.59 370.38L92.63 368.65L90.29 366.84L88.54 364.56L86.27 361.43L85.30 358.24L85.25 355.06L85.53 353.64L85.69 352.66L87.53 347.69L93.99 343.23L93.28 338.74L93.18 335.98L91.61 334.17L88.48 333.44L87.65 332.19L87.30 330.96L89.60 328.20L86.82 326.02L85.63 323.76L81.76 320.91L81.35 319.93L83.21 311.59L81.79 309.15L80.02 307.90L77.96 307.29L77.02 306.13L76.69 304.80L77.06 303.98L79.48 304.22L80.22 303.36L85.99 298.44L86.22 297.49L85.42 296.95L84.37 296.66L84.11 295.63L84.14 294.26L87.22 287.13L88.13 284.08L88.34 281.93L88.15 279.80L86.38 276.44L84.66 273.76L84.60 271.63L83.35 270.50L79.80 264.77L79.80 262.55L81.81 260.82L84.62 259.72L85.55 258.81L87.23 258.24L91.69 259.90L93.69 261.34L94.25 261.04L96.05 259.47L99.21 259.72L106.86 256.57L108.00 255.06L108.85 253.45L108.92 252.74L105.96 249.64L105.87 248.49L106.27 247.19L107.10 246.17L108.85 245.47L110.72 244.11L114.89 240.23L116.33 236.86L116.78 233.21L116.86 230.49L115.73 228.32L114.58 226.91L113.01 227.13L109.95 227.02L107.10 225.80L105.53 223.83L105.14 222.09L105.85 221.00L106.07 219.66L105.61 218.31L105.80 217.17L107.08 216.26L116.11 216.29L116.79 215.29L117.40 210.03L119.66 202.00L121.79 197.52L122.14 195.64L122.11 184.97L122.39 179.56L120.85 177.01L117.48 174.21L118.20 168.38L119.32 163.83L122.71 158.22L125.39 156.68L137.13 155.76L150.09 156.14L155.47 164.61L153.47 168.96L156.62 170.98L158.14 170.24L159.29 166.46L160.06 162.27L161.16 161.01L165.17 164.14L166.58 166.28L166.66 173.16L168.14 163.84L167.04 157.29L167.80 150.93L169.41 147.62L170.88 145.50L180.39 147.78L190.89 146.60L194.86 149.06L203.85 161.33L206.84 163.34L210.62 163.97L205.41 161.35L194.53 146.42L191.26 144.56L186.26 144.00L183.14 142.54L181.17 140.27L180.59 138.24L180.70 123.08L178.82 120.81L176.39 120.03L174.88 121.07L171.77 121.08L171.12 117.63L171.88 115.07L178.12 113.32L182.24 110.97L182.42 106.82L179.82 103.54L176.71 97.53L173.05 91.86L172.64 85.25L172.65 85.26L179.01 85.39L180.57 85.64L190.22 88.74L192.58 90.91L195.55 91.01L200.89 88.99L204.89 88.10L206.44 89.35L208.61 89.87L209.11 89.87L209.32 90.96L214.32 92.53L216.42 95.03L218.75 98.83L218.97 104.29L215.99 108.21L213.51 110.69L222.89 109.75L223.82 111.99L225.24 114.41L230.29 112.69L242.94 119.84L250.60 116.36L252.56 116.16L254.30 121.93L252.39 127.72L245.65 133.90L247.14 137.69L249.30 138.53L255.66 137.73L265.73 141.47L267.83 140.31L276.00 131.66L279.26 129.80L290.01 128.47L291.96 125.12L296.32 121.74L299.12 118.04L305.84 110.98L312.79 112.26L316.84 113.61L321.30 114.29L325.35 121.80L335.60 130.07L345.02 129.35L348.37 137.15L349.84 146.75L352.74 149.76L355.28 151.72L362.96 153.77L363.26 153.90L363.51 155.20L363.98 159.94L364.62 163.86L368.57 179.49L368.49 183.29L368.45 184.30L367.00 189.62L364.43 194.09L361.04 196.61L359.17 199.41L358.82 202.50L363.08 207.90L371.96 215.61L375.56 222.19L373.86 227.64L373.35 231.63L374.01 234.17L375.43 236.21L377.62 237.75L378.49 240.12L378.05 243.31L378.46 245.53L380.10 247.10L379.95 247.72L379.15 249.93L378.07 253.97L377.45 256.91L374.95 260.91L375.71 264.31L377.67 268.31L379.16 270.31L379.63 272.21L378.68 276.73L379.15 277.88L385.33 281.20L386.34 282.73L386.94 285.91L389.11 292.70L387.31 301.28L385.73 305.96L382.20 313.39L382.04 314.07L381.63 314.97L380.58 316.27L379.10 316.46L376.88 315.49L375.36 314.25L375.71 311.05L374.73 310.85L373.52 308.88L373.04 306.77L371.74 305.90L366.96 305.01L365.34 304.39L364.09 304.84L363.16 306.34L363.75 307.69L364.64 309.01L367.29 311.09L367.02 311.92L361.31 313.95L357.72 316.03L354.38 317.19L350.97 319.34L344.24 321.76L339.31 322.40L338.28 323.03L336.44 327.11L335.20 327.97L334.00 327.52L333.10 326.86L331.95 327.41L330.76 328.76L329.51 329.29L328.43 329.27L326.50 332.83L320.88 333.91L320.22 335.75L319.19 337.88L318.37 338.41L315.83 337.56L312.32 337.09L310.31 338.26L307.89 338.91L304.94 339.10L301.65 341.44L298.44 345.52L296.64 349.13L295.67 350.42L294.10 347.04L292.17 344.72L290.81 343.51L289.60 343.51L289.28 344.00L289.27 345.77L290.57 348.71L292.18 350.72L292.44 352.20L293.30 354.89L295.64 357.82L299.32 360.14L301.82 362.42L303.68 365.59L303.69 366.56L303.18 367.85L302.31 369.07L301.57 370.65L299.53 373.84L300.13 375.24L301.80 377.00L303.28 379.11L305.17 382.53L307.77 388.50L309.45 390.95L311.72 393.48L313.96 395.41L317.48 395.35L321.13 399.03L325.11 404.34L328.09 406.78L330.17 407.52L331.89 409.43L333.41 412.17L334.00 413.75L335.35 414.90L339.00 414.68L343.68 418.99L346.58 422.14L348.11 424.68L347.71 425.68L347.52 428.84L347.57 432.18L347.11 433.95L345.01 436.27L343.93 436.77L343.35 437.27L336.92 434.24L336.41 434.76L336.01 435.13L334.28 443.90L333.10 445.58L331.33 447.13L327.66 448.63L325.11 449.25L323.12 450.01L316.82 453.66L313.99 455.86L312.15 458.61L312.14 460.19L315.20 464.84L318.74 469.64L318.76 473.85L317.19 476.99L316.83 478.21L317.87 478.67L319.83 478.84L321.47 479.38L322.17 481.59L321.96 485.43L321.40 489.03L320.81 490.54L319.23 490.66L316.19 489.11L313.82 487.30L312.91 486.19L312.86 484.86L313.37 484.02L312.52 482.39L309.60 480.87L306.48 481.53L304.17 482.55L302.68 482.49L301.07 481.03L298.60 479.92L295.36 479.18L293.35 478.39L292.93 478.86L293.16 482.02L292.54 483.39L276.55 485.21L271.68 486.92L268.13 489.13L265.51 490.08L264.86 491.44L262.26 493.22L259.33 493.79L258.62 493.21L256.74 494.03L253.53 494.82L251.45 494.57L250.47 493.13L248.48 490.92L247.69 489.39L247.77 488.41L243.29 488.22L240.46 487.05L234.46 487.32L232.98 486.83L232.67 487.36L231.77 493.62L230.58 496.19L228.66 498.84L226.20 500.31L224.23 500.58L224.33 498.65L224.82 496.32L223.41 495.77L221.28 495.51L220.25 494.81L220.52 493.04L220.03 492.00L219.15 490.77L217.02 489.16L212.51 486.79L209.43 485.62L208.28 486.87L206.07 488.13L202.61 487.71L201.76 488.21Z" stroke-width="0.75" stroke="#000000" stroke-linecap="round" stroke-linejoin="round" fill="none" fill-rule="evenodd"/>
<path d="M344.51 115.95L345.36 119.89L344.45 121.89L340.61 118.55L336.76 118.60L334.46 123.73L332.75 123.95L326.80 119.29L325.85 117.01L325.65 115.12L326.50 108.54L326.35 106.47L328.22 104.20L328.51 100.92L331.81 97.46L334.74 97.33L335.67 100.26L337.08 102.28L342.02 104.54L342.75 105.57L343.20 106.99L340.90 109.76L340.12 111.18L340.85 113.46L344.51 115.95Z" stroke-width="0.75" stroke="#000000" stroke-linecap="round" stroke-linejoin="round" fill="none" fill-rule="evenodd"/>
<path d="M361.64 141.14L361.19 142.95L361.72 145.75L360.30 145.54L356.08 146.19L351.90 145.27L351.09 141.80L351.76 138.46L350.08 136.15L348.53 134.80L348.30 132.87L348.55 130.86L355.76 136.25L361.64 141.14Z" stroke-width="0.75" stroke="#000000" stroke-linecap="round" stroke-linejoin="round" fill="none" fill-rule="evenodd"/>
<path d="M261.75 113.88L256.51 114.00L254.51 111.65L252.50 111.06L253.58 108.16L255.00 107.11L260.07 108.99L261.66 112.69L261.75 113.88Z" stroke-width="0.75" stroke="#000000" stroke-linecap="round" stroke-linejoin="round" fill="none" fill-rule="evenodd"/>
<path d="M160.27 92.15L159.48 93.33L159.86 84.96L163.59 76.02L165.17 76.22L163.56 78.64L163.09 80.33L162.43 83.71L162.73 85.47L171.25 85.95L170.26 87.51L161.62 88.56L160.27 92.15Z" stroke-width="0.75" stroke="#000000" stroke-linecap="round" stroke-linejoin="round" fill="none" fill-rule="evenodd"/>
<path d="M169.83 96.54L168.50 97.99L165.25 97.82L163.43 96.46L164.02 95.01L165.74 93.90L167.17 93.73L169.33 94.41L169.83 96.54Z" stroke-width="0.75" stroke="#000000" stroke-linecap="round" stroke-linejoin="round" fill="none" fill-rule="evenodd"/>
<path d="M216.82 474.28L209.82 470.39L203.11 466.65L201.00 466.65L191.63 467.39L191.33 467.07L189.52 464.94L188.01 464.26L187.16 464.61L186.62 465.22L185.60 465.12L181.11 461.68L179.34 461.19L176.98 461.64L174.28 463.49L173.22 465.76L173.69 467.07L175.21 467.63L179.03 467.25L179.62 467.63L179.81 468.36L179.44 469.08L176.35 469.67L175.51 470.53L174.61 470.74L174.03 470.87L170.63 469.97L165.67 469.97L161.78 471.57L155.44 472.21L146.64 471.90L143.40 470.71L141.43 469.99L139.82 466.48L139.82 461.29L141.45 454.43L141.68 449.39L140.54 446.19L141.45 441.39L144.39 434.99L146.18 428.26L146.80 421.18L148.11 416.56L151.08 413.33L158.01 404.31L158.58 403.63L158.03 399.13L155.94 398.50L152.86 397.21L145.14 395.61L137.98 394.59L134.67 393.32L131.62 389.93L129.88 389.88L126.55 391.10L122.34 391.92L119.19 391.20L117.25 391.34L116.20 391.96L115.62 391.41L114.65 388.50L112.98 387.74L110.42 387.08L108.87 387.37L107.88 388.81L106.28 389.83L104.72 389.50L99.51 382.79L98.18 381.31L97.78 379.95L96.43 377.45L93.43 374.97L90.54 374.19L89.14 374.47L89.11 371.39L89.96 366.92L90.88 364.60L92.18 362.69L93.59 361.37L93.78 358.98L93.40 356.72L91.65 356.37L87.22 354.70L84.56 352.95L82.53 350.75L79.87 347.72L78.63 344.64L78.40 341.58L78.62 340.21L78.75 339.28L80.46 334.51L87.22 330.24L86.18 325.95L85.92 323.32L84.12 321.60L80.68 320.91L79.71 319.72L79.26 318.55L81.60 315.94L78.47 313.87L77.05 311.73L72.71 309.04L72.21 308.11L73.76 300.26L72.09 297.97L70.13 296.80L67.88 296.23L66.80 295.14L66.38 293.90L66.73 293.13L69.34 293.35L70.09 292.55L76.01 287.95L76.21 287.06L75.32 286.56L74.17 286.29L73.83 285.33L73.79 284.06L76.69 277.43L77.49 274.61L77.58 272.62L77.26 270.65L75.19 267.56L73.20 265.09L73.02 263.12L71.62 262.09L67.52 256.83L67.41 254.80L69.45 253.22L72.37 252.21L73.31 251.38L75.06 250.86L79.89 252.38L82.09 253.69L82.68 253.42L84.50 251.99L87.87 252.21L95.80 249.34L96.92 247.96L97.73 246.50L97.76 245.85L94.42 243.03L94.26 241.99L94.59 240.81L95.41 239.88L97.23 239.25L99.12 238.02L103.28 234.51L104.59 231.47L104.82 228.18L104.73 225.73L103.39 223.79L102.09 222.53L100.45 222.72L97.22 222.62L94.14 221.53L92.37 219.76L91.85 218.21L92.53 217.23L92.68 216.03L92.11 214.82L92.24 213.81L93.53 213.00L103.02 213.03L103.67 212.13L103.97 207.46L105.81 200.34L107.74 196.38L107.99 194.72L107.25 185.35L107.18 180.61L105.41 178.39L101.73 175.95L102.09 170.89L102.95 166.94L106.09 162.09L108.77 160.76L120.85 159.97L134.29 160.29L140.49 167.61L138.75 171.38L142.17 173.13L143.69 172.49L144.59 169.22L145.07 165.59L146.12 164.49L150.51 167.20L152.14 169.06L152.77 175.04L153.57 166.94L151.92 161.29L152.20 155.81L153.60 152.96L154.96 151.15L164.96 153.10L175.70 152.10L180.01 154.20L190.37 164.78L193.65 166.51L197.62 167.06L191.99 164.79L179.43 151.94L175.91 150.35L170.69 149.87L167.35 148.61L165.14 146.68L164.38 144.94L163.24 132.06L161.13 130.14L158.58 129.48L157.11 130.36L153.93 130.37L152.98 127.46L153.56 125.30L159.81 123.83L163.83 121.85L163.67 118.37L160.75 115.62L157.08 110.60L152.90 105.89L151.96 100.40L151.97 100.41L158.44 100.52L160.05 100.72L170.11 103.29L172.69 105.09L175.72 105.17L180.98 103.50L184.96 102.76L186.64 103.79L188.90 104.23L189.41 104.23L189.73 105.13L194.95 106.44L197.31 108.52L200.04 111.69L200.77 116.25L198.08 119.53L195.78 121.61L205.27 120.82L206.43 122.71L208.11 124.75L213.12 123.30L226.77 129.32L234.26 126.39L236.25 126.22L238.62 131.09L237.25 136.00L230.94 141.24L232.86 144.47L235.16 145.19L241.63 144.50L252.39 147.70L254.43 146.71L261.92 139.34L265.07 137.76L275.97 136.63L277.60 133.78L281.68 130.92L284.14 127.80L290.20 121.86L297.45 122.93L301.76 124.07L306.40 124.64L311.46 130.98L323.00 137.99L332.59 137.38L337.02 144.02L339.76 152.22L343.14 154.80L346.02 156.49L354.22 158.25L354.55 158.36L354.97 159.48L356.08 163.57L357.27 166.97L363.44 180.55L363.86 183.88L363.95 184.76L363.15 189.42L361.05 193.36L357.84 195.58L356.25 198.05L356.28 200.78L361.46 205.57L371.81 212.42L376.47 218.29L375.42 223.18L375.41 226.76L376.45 229.05L378.22 230.89L380.75 232.27L381.99 234.41L381.95 237.30L382.69 239.31L384.64 240.73L384.56 241.29L384.02 243.30L383.42 246.97L383.16 249.65L381.05 253.30L382.31 256.41L384.94 260.07L386.79 261.92L387.55 263.66L387.15 267.82L387.81 268.88L394.87 271.94L396.16 273.36L397.23 276.31L400.49 282.61L399.75 290.60L398.69 294.98L395.92 301.95L395.83 302.59L395.52 303.44L394.56 304.66L392.99 304.84L390.47 303.93L388.66 302.76L388.61 299.76L387.53 299.56L385.96 297.72L385.16 295.73L383.64 294.93L378.39 294.09L376.56 293.51L375.28 293.93L374.48 295.33L375.30 296.60L376.43 297.83L379.55 299.79L379.37 300.57L373.49 302.48L369.89 304.43L366.44 305.53L363.04 307.56L356.09 309.84L350.84 310.44L349.81 311.04L348.33 314.91L347.09 315.71L345.74 315.29L344.68 314.66L343.51 315.19L342.39 316.47L341.11 316.97L339.93 316.95L338.28 320.33L332.32 321.36L331.83 323.11L330.97 325.14L330.14 325.64L327.28 324.83L323.43 324.39L321.39 325.50L318.84 326.11L315.66 326.30L312.37 328.53L309.35 332.43L307.80 335.88L306.89 337.12L304.80 333.88L302.45 331.66L300.84 330.51L299.52 330.51L299.23 330.98L299.42 332.67L301.16 335.49L303.13 337.41L303.58 338.83L304.82 341.42L307.70 344.24L311.96 346.48L314.95 348.68L317.34 351.74L317.47 352.68L317.06 353.93L316.25 355.10L315.62 356.64L313.76 359.74L314.58 361.10L316.60 362.81L318.46 364.87L320.92 368.20L324.47 374.03L326.59 376.43L329.39 378.92L332.07 380.81L335.94 380.75L340.39 384.37L345.41 389.61L348.99 392.02L351.37 392.75L353.49 394.64L355.51 397.35L356.36 398.93L357.99 400.06L361.99 399.85L367.71 404.13L371.31 407.27L373.32 409.80L373.00 410.80L373.19 413.96L373.67 417.31L373.38 419.08L371.35 421.41L370.21 421.91L369.63 422.41L362.11 419.37L361.61 419.89L361.21 420.26L360.37 429.08L359.26 430.78L357.48 432.34L353.58 433.86L350.81 434.48L348.69 435.25L342.10 438.95L339.19 441.18L337.46 443.97L337.64 445.58L341.61 450.31L346.12 455.21L346.65 459.52L345.26 462.74L345.00 463.98L346.22 464.45L348.44 464.63L350.34 465.19L351.39 467.46L351.61 471.42L351.41 475.12L350.93 476.68L349.16 476.81L345.56 475.20L342.68 473.34L341.54 472.20L341.32 470.83L341.80 469.96L340.66 468.28L337.20 466.72L333.77 467.40L331.30 468.45L329.62 468.39L327.65 466.89L324.75 465.74L321.04 464.98L318.69 464.17L318.26 464.65L318.88 467.90L318.34 469.31L300.58 471.19L295.28 472.95L291.53 475.22L288.67 476.21L288.09 477.61L285.35 479.46L282.11 480.04L281.25 479.44L279.22 480.29L275.69 481.11L273.31 480.85L272.07 479.36L269.61 477.08L268.57 475.50L268.56 474.49L263.50 474.28L260.21 473.08L253.50 473.36L251.79 472.85L251.49 473.40L251.07 479.87L249.98 482.53L248.06 485.27L245.42 486.80L243.23 487.08L243.16 485.08L243.50 482.66L241.86 482.10L239.44 481.82L238.22 481.10L238.36 479.27L237.71 478.20L236.61 476.92L234.07 475.26L228.77 472.82L225.21 471.60L224.03 472.89L221.66 474.19L217.73 473.77L216.82 474.28Z" stroke-width="0.75" stroke="#FF0000" stroke-linecap="round" stroke-linejoin="round" fill="none" fill-rule="evenodd"/>
<path d="M330.37 126.04L331.74 129.36L331.05 131.05L326.70 128.24L322.76 128.28L321.04 132.61L319.31 132.80L312.64 128.86L311.39 126.94L310.96 125.34L311.03 119.81L310.62 118.07L312.25 116.18L312.15 113.43L315.09 110.55L318.07 110.44L319.38 112.88L321.06 114.57L326.38 116.46L327.26 117.32L327.90 118.51L325.90 120.84L325.28 122.03L326.31 123.95L330.37 126.04Z" stroke-width="0.75" stroke="#FF0000" stroke-linecap="round" stroke-linejoin="round" fill="none" fill-rule="evenodd"/>
<path d="M351.20 147.42L350.98 148.97L351.89 151.36L350.40 151.18L346.12 151.74L341.69 150.95L340.42 147.98L340.67 145.13L338.65 143.16L336.89 142.01L336.40 140.36L336.41 138.66L344.51 143.25L351.20 147.42Z" stroke-width="0.75" stroke="#FF0000" stroke-linecap="round" stroke-linejoin="round" fill="none" fill-rule="evenodd"/>
<path d="M245.42 124.30L240.08 124.40L237.79 122.42L235.67 121.92L236.49 119.49L237.83 118.61L243.20 120.19L245.21 123.29L245.42 124.30Z" stroke-width="0.75" stroke="#FF0000" stroke-linecap="round" stroke-linejoin="round" fill="none" fill-rule="evenodd"/>
<path d="M139.92 106.13L139.21 107.10L138.96 100.16L142.06 92.78L143.68 92.94L142.23 94.94L141.88 96.33L141.48 99.13L141.91 100.58L150.60 100.98L149.72 102.27L141.03 103.14L139.92 106.13Z" stroke-width="0.75" stroke="#FF0000" stroke-linecap="round" stroke-linejoin="round" fill="none" fill-rule="evenodd"/>
<path d="M149.99 109.78L148.75 110.98L145.44 110.84L143.47 109.71L143.96 108.50L145.63 107.58L147.07 107.44L149.32 108.01L149.99 109.78Z" stroke-width="0.75" stroke="#FF0000" stroke-linecap="round" stroke-linejoin="round" fill="none" fill-rule="evenodd"/>
<path d="M219.87 475.57L212.80 472.11L206.03 468.77L203.91 468.87L194.52 470.03L194.22 469.72L192.38 467.72L190.86 467.13L190.01 467.51L189.48 468.14L188.45 468.08L183.91 464.92L182.13 464.51L179.76 465.06L177.09 466.99L176.04 469.25L176.54 470.50L178.06 470.99L181.89 470.45L182.49 470.80L182.69 471.50L182.33 472.22L179.24 472.93L178.40 473.81L177.50 474.05L176.93 474.21L173.51 473.47L168.53 473.68L164.65 475.41L158.30 476.29L149.47 476.34L146.20 475.30L144.22 474.68L142.56 471.32L142.50 466.25L144.06 459.48L144.24 454.54L143.05 451.45L143.90 446.72L146.78 440.33L148.49 433.66L149.03 426.68L150.28 422.09L153.21 418.79L160.03 409.61L160.59 408.92L159.99 404.51L157.89 403.97L154.79 402.83L147.04 401.58L139.87 400.86L136.55 399.74L133.46 396.51L131.72 396.54L128.40 397.86L124.20 398.83L121.04 398.24L119.11 398.45L118.07 399.11L117.48 398.59L116.48 395.75L114.80 395.07L112.23 394.50L110.68 394.84L109.71 396.30L108.11 397.37L106.55 397.09L101.26 390.66L99.92 389.24L99.51 387.91L98.13 385.50L95.10 383.15L92.21 382.47L90.81 382.80L90.75 379.75L91.55 375.31L92.45 372.98L93.72 371.05L95.13 369.69L95.29 367.32L94.88 365.09L93.13 364.81L88.69 363.30L86.01 361.65L83.96 359.54L81.27 356.62L80.00 353.61L79.74 350.58L79.95 349.22L80.06 348.28L81.72 343.49L88.42 339.02L87.34 334.78L87.05 332.17L85.23 330.52L81.80 329.95L80.82 328.79L80.36 327.65L82.66 324.96L79.52 323.01L78.08 320.92L73.73 318.37L73.22 317.47L74.68 309.57L73.00 307.34L71.02 306.24L68.78 305.74L67.70 304.68L67.26 303.45L67.60 302.67L70.21 302.82L70.95 301.99L76.79 297.18L76.98 296.29L76.08 295.82L74.94 295.59L74.59 294.63L74.54 293.36L77.35 286.63L78.11 283.77L78.19 281.76L77.84 279.80L75.74 276.76L73.74 274.35L73.53 272.38L72.14 271.39L68.00 266.23L67.86 264.19L69.87 262.53L72.76 261.42L73.69 260.55L75.43 259.97L80.24 261.33L82.45 262.57L83.03 262.28L84.82 260.77L88.17 260.88L96.02 257.69L97.11 256.26L97.90 254.75L97.92 254.10L94.57 251.38L94.39 250.33L94.71 249.13L95.52 248.16L97.31 247.46L99.17 246.14L103.25 242.43L104.51 239.30L104.70 235.97L104.58 233.49L103.23 231.57L101.92 230.35L100.29 230.61L97.09 230.63L94.02 229.64L92.24 227.92L91.71 226.37L92.37 225.35L92.50 224.13L91.92 222.93L92.03 221.90L93.30 221.02L102.71 220.68L103.34 219.75L103.57 214.99L105.30 207.68L107.16 203.58L107.38 201.88L106.51 192.36L106.38 187.53L104.59 185.33L100.91 183.00L101.20 177.80L102.00 173.73L105.03 168.64L107.66 167.17L119.58 165.84L132.86 165.57L139.12 172.78L137.45 176.71L140.86 178.35L142.35 177.62L143.20 174.22L143.61 170.49L144.62 169.31L149.01 171.87L150.65 173.70L151.37 179.78L152.02 171.46L150.29 165.74L150.47 160.11L151.81 157.12L153.11 155.19L163.02 156.69L173.60 155.09L177.89 157.03L188.32 167.32L191.59 168.92L195.53 169.25L189.92 167.24L177.27 154.73L173.77 153.28L168.62 153.06L165.30 151.95L163.08 150.07L162.29 148.33L160.93 135.12L158.81 133.25L156.29 132.69L154.86 133.68L151.72 133.85L150.73 130.89L151.26 128.64L157.39 126.80L161.31 124.55L161.09 120.95L158.16 118.27L154.45 113.26L150.25 108.59L149.21 102.95L149.23 102.96L155.59 102.74L157.18 102.87L167.12 104.99L169.70 106.72L172.68 106.64L177.82 104.61L181.72 103.62L183.39 104.60L185.62 104.92L186.13 104.89L186.45 105.81L191.61 106.86L193.98 108.89L196.73 112.01L197.55 116.69L194.98 120.25L192.76 122.54L202.08 121.17L203.27 123.05L204.97 125.06L209.86 123.25L223.43 128.65L230.73 125.14L232.68 124.83L235.13 129.72L233.90 134.88L227.81 140.70L229.77 143.92L232.06 144.51L238.41 143.39L249.09 145.98L251.07 144.82L258.25 136.71L261.31 134.86L271.99 132.93L273.52 129.87L277.46 126.61L279.79 123.20L285.57 116.59L292.72 117.16L296.99 118.02L301.55 118.26L306.70 124.45L318.23 130.83L327.63 129.43L332.17 135.96L335.12 144.25L338.51 146.64L341.39 148.15L349.50 149.31L349.83 149.39L350.28 150.52L351.49 154.66L352.76 158.07L359.24 171.58L359.76 174.97L359.87 175.88L359.23 180.74L357.28 184.96L354.18 187.51L352.69 190.18L352.81 192.98L358.05 197.48L368.44 203.66L373.21 209.29L372.32 214.38L372.41 218.06L373.50 220.31L375.31 222.04L377.84 223.25L379.12 225.33L379.17 228.29L379.96 230.27L381.93 231.57L381.87 232.14L381.39 234.24L380.90 238.04L380.73 240.79L378.75 244.69L380.08 247.75L382.78 251.26L384.67 252.98L385.47 254.70L385.19 258.96L385.87 259.98L392.93 262.51L394.25 263.84L395.40 266.75L398.80 272.87L398.29 281.04L397.37 285.56L394.82 292.84L394.75 293.50L394.46 294.38L393.55 295.69L392.01 296.00L389.48 295.28L387.66 294.25L387.52 291.22L386.45 291.10L384.85 289.36L384.00 287.42L382.47 286.73L377.25 286.30L375.43 285.86L374.17 286.38L373.41 287.87L374.26 289.08L375.41 290.24L378.56 291.97L378.40 292.78L372.62 295.16L369.11 297.42L365.72 298.79L362.40 301.10L355.57 303.92L350.38 304.92L349.37 305.60L348.00 309.60L346.79 310.51L345.45 310.18L344.38 309.62L343.23 310.24L342.15 311.61L340.89 312.21L339.72 312.27L338.16 315.79L332.27 317.24L331.82 319.04L331.01 321.14L330.20 321.70L327.35 321.09L323.51 320.91L321.51 322.17L318.99 322.96L315.84 323.37L312.62 325.82L309.71 329.94L308.24 333.50L307.37 334.80L305.22 331.70L302.84 329.63L301.21 328.58L299.89 328.67L299.61 329.16L299.84 330.84L301.63 333.55L303.63 335.34L304.11 336.73L305.40 339.23L308.32 341.87L312.61 343.82L315.63 345.82L318.07 348.72L318.22 349.65L317.84 350.92L317.06 352.15L316.47 353.73L314.68 356.95L315.53 358.25L317.58 359.82L319.47 361.75L321.99 364.90L325.65 370.47L327.81 372.72L330.65 375.00L333.36 376.71L337.21 376.39L341.72 379.68L346.84 384.54L350.46 386.68L352.85 387.24L355.00 388.97L357.07 391.53L357.96 393.03L359.61 394.04L363.59 393.55L369.38 397.39L373.04 400.24L375.10 402.61L374.80 403.62L375.07 406.74L375.62 410.03L375.37 411.80L373.40 414.26L372.27 414.83L371.70 415.37L364.14 412.90L363.65 413.45L363.26 413.85L362.62 422.64L361.55 424.39L359.81 426.06L355.94 427.83L353.20 428.63L351.09 429.54L344.59 433.64L341.74 436.03L340.07 438.90L340.27 440.47L344.33 444.87L348.94 449.39L349.55 453.60L348.24 456.86L348.00 458.10L349.23 458.48L351.45 458.51L353.36 458.93L354.45 461.09L354.75 464.97L354.63 468.62L354.18 470.19L352.42 470.43L348.78 469.09L345.87 467.45L344.70 466.40L344.45 465.07L344.92 464.19L343.74 462.61L340.26 461.31L336.84 462.20L334.39 463.39L332.71 463.43L330.71 462.09L327.78 461.14L324.06 460.64L321.70 459.99L321.28 460.49L321.96 463.63L321.44 465.06L303.71 467.99L298.44 470.03L294.72 472.48L291.88 473.61L291.32 475.02L288.61 476.99L285.37 477.75L284.51 477.21L282.48 478.15L278.96 479.16L276.58 479.04L275.31 477.65L272.81 475.55L271.74 474.07L271.72 473.07L266.65 473.15L263.33 472.16L256.61 472.80L254.89 472.39L254.60 472.94L254.28 479.29L253.22 481.94L251.35 484.73L248.73 486.36L246.53 486.74L246.43 484.79L246.74 482.42L245.08 481.95L242.65 481.80L241.42 481.17L241.53 479.37L240.87 478.35L239.74 477.16L237.17 475.67L231.83 473.55L228.24 472.54L227.07 473.86L224.72 475.25L220.77 475.03L219.87 475.57Z" stroke-width="0.75" stroke="#0000FF" stroke-linecap="round" stroke-linejoin="round" fill="none" fill-rule="evenodd"/>
<path d="M325.10 117.83L326.55 121.18L325.93 122.99L321.58 120.41L317.71 120.76L316.15 125.41L314.46 125.73L307.80 122.16L306.52 120.26L306.05 118.63L305.96 112.88L305.50 111.10L307.05 109.00L306.86 106.16L309.66 102.91L312.57 102.57L313.93 105.01L315.63 106.64L320.90 108.18L321.79 109.00L322.45 110.19L320.56 112.78L319.99 114.07L321.06 115.98L325.10 117.83Z" stroke-width="0.75" stroke="#0000FF" stroke-linecap="round" stroke-linejoin="round" fill="none" fill-rule="evenodd"/>
<path d="M346.20 138.33L346.03 139.96L347.00 142.37L345.53 142.30L341.35 143.23L336.97 142.77L335.63 139.80L335.80 136.82L333.75 134.95L331.99 133.89L331.46 132.23L331.41 130.46L339.50 134.56L346.20 138.33Z" stroke-width="0.75" stroke="#0000FF" stroke-linecap="round" stroke-linejoin="round" fill="none" fill-rule="evenodd"/>
<path d="M241.65 122.25L236.40 122.70L234.10 120.80L232.01 120.42L232.75 117.85L234.04 116.85L239.37 118.14L241.42 121.22L241.65 122.25Z" stroke-width="0.75" stroke="#0000FF" stroke-linecap="round" stroke-linejoin="round" fill="none" fill-rule="evenodd"/>
<path d="M137.48 109.49L136.80 110.53L136.42 103.36L139.33 95.54L140.93 95.63L139.54 97.77L139.23 99.24L138.88 102.16L139.34 103.64L147.89 103.62L147.05 105.01L138.51 106.35L137.48 109.49Z" stroke-width="0.75" stroke="#0000FF" stroke-linecap="round" stroke-linejoin="round" fill="none" fill-rule="evenodd"/>
<path d="M147.46 112.77L146.26 114.08L142.99 114.10L141.04 113.02L141.50 111.75L143.12 110.71L144.53 110.49L146.77 110.97L147.46 112.77Z" stroke-width="0.75" stroke="#0000FF" stroke-linecap="round" stroke-linejoin="round" fill="none" fill-rule="evenodd"/>
</g>
</svg>