<svg xmlns="http://www.w3.org/2000/svg" xmlns:xlink="http://www.w3.org/1999/xlink" version="1.1" width="534.6328" height="666.9571" viewBox="0 0 534.6328 666.9571">
<defs>
<clipPath id="clip_0">
<path transform="matrix(1,0,0,-1,-156.9727,759.9766)" d="M156.9727 93.01953H691.6055V759.9766H156.9727Z" fill-rule="evenodd"/>
</clipPath>
<clipPath id="clip_1">
<path transform="matrix(1,0,0,1,-156.9727,-76.02338)" d="M59.039 59.039H788.961V762.559H59.039Z"/>
</clipPath>
</defs>
<g>
<g clip-path="url(#clip_0)">
<path transform="matrix(1,0,0,1,-156.9727,-76.02338)" d="M0 0H819.199V836H0Z" fill="#ffffff"/>
<g clip-path="url(#clip_1)">
<path transform="matrix(1,0,0,1,-156.9727,-76.02338)" d="M-76.23 59.039H924.231V762.559H-76.23Z" fill="#ffffff"/>
<path transform="matrix(1,0,0,1,-156.9727,-76.02338)" stroke-width=".75" stroke-linecap="round" stroke-linejoin="round" fill="none" stroke="#ffffff" d="M-76.23 59.039H924.231V762.559H-76.23Z"/>
<path transform="matrix(1,0,0,1,-156.9727,-76.02338)" stroke-width=".75" stroke-linecap="round" stroke-linejoin="round" fill="none" stroke="#000000" d="M376.215 717.527 367.109 711.734 358.359 706.16H355.465L342.57 707.27 342.199 706.781 339.953 703.602 337.961 702.594 336.762 703.109 335.957 704.035 334.574 703.879 328.793 698.738 326.426 697.996 323.141 698.676 319.262 701.445 317.57 704.832 318.086 706.781 320.098 707.629 325.363 707.059 326.133 707.621 326.312 708.715 325.734 709.785 321.453 710.664 320.215 711.945 318.965 712.262 318.16 712.457 313.613 711.113H306.832L301.363 713.5 292.637 714.453 280.652 713.988 276.34 712.215 273.711 711.145 271.828 705.914 272.309 698.152 275.168 687.855 275.965 680.285 274.695 675.453 276.391 668.203 281.051 658.523 284.164 648.289 285.719 637.488 287.977 630.43 292.414 625.477 302.945 611.594 303.801 610.551 303.516 603.605 300.676 602.625 296.523 600.629 285.949 598.156 276.094 596.57 271.621 594.602 267.703 589.34 265.273 589.27 260.52 591.152 254.582 592.426 250.266 591.312 247.559 591.527 246.043 592.5 245.281 591.641 244.195 587.125 241.938 585.945 238.426 584.91 236.246 585.355 234.738 587.602 232.41 589.184 230.273 588.668 223.586 578.227 221.863 575.918 221.422 573.785 219.746 569.891 215.762 566.012 211.789 564.781 209.805 565.219 210.02 560.387 211.586 553.375 213.07 549.711 215.055 546.715 217.156 544.629 217.625 540.859 217.289 537.285 214.859 536.73 208.773 534.09 205.188 531.305 202.508 527.816 199.016 523.004 197.531 518.113 197.453 513.23 197.883 511.047 198.133 509.551 200.949 501.922 210.859 495.086 209.77 488.188 209.629 483.957 207.219 481.18 202.41 480.062 201.137 478.137 200.602 476.254 204.133 472.027 199.871 468.68 198.035 465.211 192.098 460.836 191.469 459.328 194.32 446.531 192.145 442.789 189.434 440.879 186.277 439.941 184.836 438.16 184.328 436.125 184.895 434.859 188.605 435.234 189.746 433.914 198.586 426.352 198.949 424.895 197.719 424.074 196.098 423.633 195.699 422.043 195.758 419.945 200.484 409.008 201.879 404.332 202.191 401.023 201.898 397.754 199.195 392.609 196.555 388.496 196.461 385.219 194.547 383.496 189.09 374.699 189.102 371.289 192.184 368.641 196.488 366.949 197.918 365.555 200.5 364.676 207.332 367.223 210.398 369.43 211.262 368.977 214.027 366.574 218.871 366.949 230.605 362.121 232.355 359.797 233.676 357.324 233.781 356.238 229.238 351.477 229.102 349.715 229.703 347.73 230.984 346.156 233.676 345.086 236.535 342.992 242.93 337.043 245.148 331.875 245.828 326.27 245.961 322.094 244.219 318.77 242.453 316.613 240.043 316.941 235.355 316.77 230.977 314.902 228.574 311.879 227.98 309.215 229.07 307.539 229.402 305.48 228.699 303.406 228.98 301.664 230.953 300.266 244.809 300.312 245.848 298.777 246.785 290.711 250.25 278.391 253.516 271.516 254.062 268.621 254.012 252.266 254.445 243.953 252.078 240.039 246.91 235.754 248.012 226.812 249.727 219.828 254.926 211.223 259.051 208.855 277.051 207.445 296.941 208.023 305.199 221.023 302.133 227.688 306.965 230.785 309.289 229.652 311.059 223.859 312.238 217.434 313.93 215.488 320.078 220.293 322.238 223.582 322.371 234.137 324.637 219.836 322.949 209.789 324.109 200.027 326.578 194.945 328.848 191.703 343.441 195.191 359.551 193.395 365.641 197.16 379.426 215.992 384.02 219.066 389.82 220.035 381.828 216.02 365.121 193.109 360.117 190.262 352.434 189.398 347.645 187.152 344.625 183.676 343.742 180.562 343.906 157.297 341.023 153.82 337.297 152.613 334.977 154.211 330.207 154.23 329.207 148.938 330.371 145.012 339.953 142.324 346.27 138.723 346.551 132.344 342.562 127.324 337.781 118.098 332.164 109.402 331.535 99.262 331.559 99.27 341.32 99.473 343.711 99.852 358.516 104.605 362.137 107.938 366.688 108.09 374.891 104.992 381.02 103.629 383.398 105.543 386.734 106.344H387.504L387.828 108.012 395.488 110.422 398.707 114.262 402.285 120.094 402.633 128.465 398.055 134.48 394.254 138.281 408.633 136.844 410.066 140.285 412.242 144 419.992 141.355 439.41 152.324 451.156 146.988 454.16 146.676 456.828 155.527 453.91 164.426 443.559 173.895 445.852 179.715 449.16 181.008 458.922 179.773 474.375 185.516 477.594 183.727 490.129 170.469 495.137 167.617 511.625 165.574 514.625 160.422 521.305 155.234 525.605 149.562 535.91 138.738 546.57 140.691 552.797 142.766 559.629 143.809 565.848 155.332 581.582 168.027 596.035 166.922 601.164 178.895 603.43 193.621 607.871 198.234 611.777 201.238 623.551 204.387 624.016 204.586 624.395 206.574 625.113 213.852 626.102 219.875 632.164 243.844 632.047 249.684 631.973 251.23 629.758 259.387 625.809 266.25 620.602 270.117 617.734 274.414 617.199 279.156 623.746 287.445 637.371 299.273 642.887 309.359 640.285 317.73 639.492 323.855 640.504 327.754 642.688 330.879 646.051 333.242 647.383 336.875 646.703 341.777 647.344 345.176 649.852 347.59 649.621 348.531 648.398 351.93 646.734 358.121 645.789 362.637 641.957 368.777 643.121 373.988 646.125 380.125 648.406 383.203 649.125 386.117 647.676 393.043 648.395 394.816 657.883 399.902 659.43 402.254 660.348 407.137 663.672 417.555 660.91 430.711 658.484 437.902 653.082 449.289 652.828 450.34 652.203 451.719 650.582 453.711 648.324 454.008 644.914 452.523 642.578 450.621 643.117 445.715 641.617 445.395 639.758 442.375 639.027 439.133 637.02 437.809 629.688 436.445 627.199 435.484 625.289 436.176 623.859 438.477 624.773 440.551 626.137 442.57 630.199 445.77 629.781 447.043 621.027 450.152 615.516 453.34 610.387 455.133 605.156 458.43 594.84 462.133 587.27 463.113 585.691 464.09 582.863 470.355 580.957 471.664 579.129 470.984 577.738 469.961 575.98 470.809 574.148 472.879 572.238 473.695 570.57 473.668 567.613 479.125 558.992 480.781 557.98 483.602 556.395 486.875 555.133 487.68 551.238 486.383 545.855 485.664 542.77 487.457 539.059 488.449 534.531 488.75 529.484 492.328 524.562 498.602 521.793 504.125 520.312 506.109 517.895 500.922 514.945 497.363 512.855 495.512 510.988 495.508 510.5 496.266 510.492 498.984 512.488 503.496 514.957 506.57 515.348 508.84 516.672 512.965 520.266 517.465 525.902 521.027 529.746 524.531 532.594 529.387 532.617 530.879 531.836 532.855 530.492 534.723 529.359 537.148 526.234 542.051 527.16 544.195 529.715 546.898 531.98 550.137 534.883 555.375 538.875 564.535 541.445 568.297 544.938 572.18 548.367 575.141 553.773 575.051 559.375 580.695 565.488 588.848 570.055 592.582 573.246 593.719 575.879 596.648 578.211 600.852 579.129 603.289 581.199 605.043 586.793 604.715 593.98 611.324 598.426 616.152 600.773 620.047 600.152 621.59 599.867 626.438 599.938 631.566 599.234 634.273 596.02 637.84 594.359 638.598 593.469 639.367 583.602 634.719 582.816 635.512 582.199 636.086 579.559 649.539 577.738 652.121 575.027 654.492 569.398 656.805 565.48 657.746 562.43 658.91 552.766 664.52 548.41 667.887 545.59 672.109 545.574 674.539 550.277 681.672 555.699 689.031 555.734 695.492 553.332 700.32 552.777 702.18 554.371 702.883 557.375 703.148 559.891 703.98 560.965 707.371 560.641 713.27 559.781 718.785 558.883 721.102 556.461 721.289 551.793 718.906 548.156 716.137 546.766 714.43 546.68 712.395 547.465 711.105 546.168 708.59 541.691 706.266 536.898 707.277 533.355 708.844 531.07 708.754 528.602 706.516 524.805 704.801 519.84 703.668 516.75 702.461 516.102 703.176 516.465 708.023 515.512 710.133 490.977 712.93 483.5 715.547 478.055 718.934 474.027 720.398 473.043 722.484 469.055 725.219 464.551 726.09 463.469 725.195 460.582 726.457 455.66 727.676 452.461 727.289 450.957 725.078 447.91 721.691 446.691 719.344 446.816 717.84 439.938 717.535 435.598 715.746 426.395 716.164 424.125 715.41 423.648 716.223 422.266 725.828 420.445 729.766 417.496 733.832 413.719 736.094 410.703 736.504 410.848 733.543 411.609 729.973 409.438 729.133 406.176 728.723 404.598 727.656 405.012 724.938 404.258 723.348 402.91 721.449 399.641 718.992 392.707 715.352 387.984 713.551 386.219 715.469 382.84 717.398 377.52 716.766ZM376.215 717.527"/>
<path transform="matrix(1,0,0,1,-156.9727,-76.02338)" stroke-width=".75" stroke-linecap="round" stroke-linejoin="round" fill="none" stroke="#000000" d="M595.246 146.355 596.555 152.398 595.148 155.473 589.266 150.355 583.359 150.426 579.828 158.301 577.199 158.633 568.078 151.48 566.617 147.988 566.316 145.078 567.617 134.992 567.379 131.812 570.246 128.332 570.691 123.305 575.758 117.992 580.258 117.793 581.688 122.293 583.84 125.387 591.418 128.855 592.547 130.43 593.234 132.605 589.707 136.863 588.512 139.047 589.629 142.539ZM595.246 146.355"/>
<path transform="matrix(1,0,0,1,-156.9727,-76.02338)" stroke-width=".75" stroke-linecap="round" stroke-linejoin="round" fill="none" stroke="#000000" d="M621.531 185.008 620.844 187.789 621.648 192.078 619.477 191.758 612.996 192.762 606.582 191.344 605.348 186.02 606.367 180.891 603.793 177.359 601.422 175.281 601.07 172.316 601.453 169.242 612.5 177.512ZM621.531 185.008"/>
<path transform="matrix(1,0,0,1,-156.9727,-76.02338)" stroke-width=".75" stroke-linecap="round" stroke-linejoin="round" fill="none" stroke="#000000" d="M468.262 143.188 460.227 143.363 457.16 139.762 454.074 138.848 455.734 134.406 457.906 132.789 465.688 135.688 468.129 141.352ZM468.262 143.188"/>
<path transform="matrix(1,0,0,1,-156.9727,-76.02338)" stroke-width=".75" stroke-linecap="round" stroke-linejoin="round" fill="none" stroke="#000000" d="M312.559 109.848 311.355 111.648 311.93 98.816 317.66 85.098 320.082 85.402 317.605 89.113 316.891 91.711 315.883 96.898 316.336 99.586 329.406 100.324 327.887 102.723 314.637 104.34ZM312.559 109.848"/>
<path transform="matrix(1,0,0,1,-156.9727,-76.02338)" stroke-width=".75" stroke-linecap="round" stroke-linejoin="round" fill="none" stroke="#000000" d="M327.223 116.582 325.184 118.801 320.207 118.539 317.41 116.453 318.316 114.227 320.957 112.527 323.145 112.266 326.465 113.316ZM327.223 116.582"/>
<path transform="matrix(1,0,0,1,-156.9727,-76.02338)" stroke-width=".75" stroke-linecap="round" stroke-linejoin="round" fill="none" stroke="#ff0000" d="M399.324 696.152 388.594 690.18 378.297 684.445H375.051L360.672 685.586 360.215 685.086 357.441 681.816 355.125 680.781 353.816 681.312 352.992 682.262 351.426 682.102 344.539 676.824 341.828 676.066 338.195 676.762 334.062 679.602 332.426 683.078 333.152 685.086 335.48 685.953 341.344 685.367 342.254 685.945 342.539 687.074 341.973 688.176 337.234 689.078 335.941 690.398 334.562 690.723 333.676 690.926 328.465 689.539H320.848L314.883 692 305.148 692.98 291.652 692.5 286.68 690.676 283.656 689.57 281.18 684.191 281.184 676.227 283.68 665.691 284.047 657.965 282.289 653.047 283.68 645.684 288.199 635.879 290.938 625.543 291.895 614.68 293.898 607.602 298.457 602.645 309.098 588.797 309.961 587.754 309.129 580.855 305.922 579.883 301.188 577.902 289.34 575.453 278.359 573.883 273.289 571.934 268.609 566.734 265.93 566.664 260.82 568.523 254.359 569.781 249.523 568.68 246.559 568.895 244.949 569.855 244.055 569.004 242.57 564.547 240.008 563.379 236.074 562.363 233.699 562.801 232.18 565.016 229.719 566.578 227.332 566.07 219.328 555.781 217.297 553.508 216.684 551.414 214.609 547.59 210 543.789 205.57 542.582 203.418 543.008 203.371 538.281 204.676 531.438 206.09 527.863 208.086 524.945 210.258 522.918 210.547 519.254 209.965 515.785 207.281 515.246 200.477 512.688 196.398 509.992 193.277 506.613 189.195 501.965 187.301 497.25 186.941 492.551 187.289 490.453 187.477 489.012 190.105 481.695 200.473 475.156 198.887 468.57 198.484 464.539 195.719 461.898 190.445 460.836 188.957 459.004 188.27 457.219 191.848 453.207 187.051 450.035 184.875 446.754 178.219 442.617 177.457 441.195 179.82 429.148 177.27 425.633 174.25 423.844 170.801 422.965 169.156 421.293 168.5 419.387 169.043 418.203 173.051 418.555 174.203 417.32 183.277 410.258 183.582 408.902 182.215 408.133 180.453 407.723 179.938 406.242 179.879 404.289 184.324 394.129 185.551 389.797 185.695 386.738 185.199 383.719 182.02 378.973 178.969 375.184 178.688 372.172 176.547 370.586 170.254 362.52 170.078 359.398 173.207 356.977 177.688 355.434 179.129 354.16 181.82 353.359 189.227 355.68 192.617 357.699 193.508 357.285 196.305 355.09 201.477 355.434 213.645 351.027 215.355 348.91 216.598 346.66 216.645 345.672 211.531 341.344 211.277 339.742 211.793 337.941 213.051 336.516 215.832 335.547 218.73 333.648 225.113 328.27 227.125 323.602 227.48 318.555 227.348 314.801 225.297 311.812 223.301 309.883 220.777 310.176 215.828 310.02 211.098 308.348 208.379 305.637 207.59 303.254 208.633 301.758 208.855 299.918 207.988 298.066 208.176 296.512 210.164 295.266 224.727 295.305 225.719 293.934 226.176 286.758 229.004 275.84 231.969 269.766 232.348 267.215 231.211 252.84 231.109 245.57 228.391 242.156 222.734 238.422 223.297 230.648 224.621 224.594 229.438 217.156 233.547 215.113 252.074 213.898 272.695 214.398 282.219 225.629 279.539 231.406 284.785 234.098 287.117 233.113 288.512 228.086 289.242 222.523 290.848 220.84 297.59 224.996 300.09 227.844 301.055 237.016 302.281 224.602 299.746 215.918 300.18 207.516 302.328 203.148 304.414 200.371 319.754 203.359 336.23 201.82 342.844 205.051 358.742 221.273 363.777 223.934 369.875 224.773 361.23 221.297 341.957 201.578 336.551 199.137 328.555 198.398 323.43 196.477 320.031 193.504 318.863 190.848 317.125 171.078 313.883 168.137 309.969 167.117 307.719 168.469 302.832 168.484 301.383 164.016 302.266 160.707 311.855 158.445 318.02 155.414 317.781 150.062 313.297 145.859 307.672 138.156 301.254 130.918 299.809 122.504 299.828 122.512 309.758 122.676 312.219 122.992 327.656 126.93 331.617 129.695 336.266 129.824 344.336 127.25 350.445 126.121 353.031 127.707 356.492 128.375H357.277L357.754 129.762 365.766 131.766 369.395 134.957 373.574 139.816 374.703 146.816 370.578 151.855 367.039 155.047 381.609 153.84 383.391 156.73 385.969 159.855 393.645 157.629 414.594 166.871 426.094 162.371 429.137 162.109 432.773 169.582 430.68 177.117 420.988 185.16 423.934 190.121 427.469 191.223 437.395 190.172 453.91 195.074 457.043 193.547 468.523 182.246 473.363 179.824 490.078 178.09 492.582 173.723 498.848 169.332 502.617 164.543 511.918 155.43 523.047 157.07 529.66 158.816 536.777 159.695 544.535 169.414 562.238 180.172 576.953 179.234 583.746 189.422 587.961 202.016 593.137 205.973 597.559 208.555 610.141 211.262 610.648 211.434 611.301 213.148 613.004 219.426 614.82 224.633 624.289 245.477 624.941 250.582 625.074 251.938 623.844 259.09 620.629 265.129 615.691 268.531 613.254 272.324 613.312 276.516 621.258 283.859 637.129 294.379 644.281 303.383 642.668 310.883 642.656 316.383 644.246 319.891 646.973 322.707 650.844 324.84 652.746 328.117 652.691 332.551 653.828 335.625 656.816 337.816 656.699 338.668 655.867 341.754 654.941 347.383 654.547 351.496 651.305 357.102 653.246 361.867 657.273 367.492 660.117 370.316 661.281 372.996 660.676 379.375 661.684 381.004 672.508 385.703 674.488 387.875 676.145 392.395 681.141 402.062 679.996 414.328 678.379 421.055 674.121 431.742 673.992 432.727 673.508 434.027 672.031 435.898 669.637 436.184 665.762 434.785 662.988 432.992 662.906 428.379 661.25 428.078 658.844 425.246 657.621 422.207 655.285 420.965 647.227 419.688 644.426 418.789 642.461 419.438 641.227 421.59 642.48 423.535 644.215 425.43 649.012 428.434 648.727 429.629 639.707 432.551 634.188 435.555 628.887 437.242 623.672 440.352 613.008 443.848 604.961 444.773 603.375 445.695 601.102 451.625 599.203 452.863 597.141 452.219 595.512 451.25 593.715 452.055 591.992 454.016 590.023 454.789 588.219 454.766 585.684 459.945 576.547 461.52 575.789 464.203 574.465 467.32 573.191 468.086 568.816 466.852 562.902 466.168 559.766 467.875 555.859 468.82 550.984 469.105 545.926 472.52 541.301 478.516 538.918 483.809 537.531 485.711 534.32 480.742 530.719 477.332 528.242 475.562 526.219 475.559 525.77 476.285 526.066 478.883 528.734 483.203 531.762 486.152 532.441 488.332 534.348 492.297 538.766 496.625 545.309 500.059 549.898 503.441 553.562 508.133 553.762 509.578 553.133 511.492 551.879 513.301 550.918 515.652 548.066 520.414 549.32 522.496 552.426 525.121 555.277 528.277 559.059 533.387 564.492 542.34 567.754 546.023 572.039 549.832 576.156 552.742 582.09 552.652 588.922 558.207 596.629 566.246 602.117 569.938 605.77 571.059 609.031 573.957 612.121 578.125 613.43 580.539 615.934 582.281 622.074 581.957 630.84 588.523 636.363 593.336 639.453 597.219 638.961 598.762 639.258 603.602 639.984 608.738 639.543 611.453 636.426 615.031 634.676 615.797 633.785 616.566 622.25 611.898 621.48 612.695 620.867 613.273 619.582 626.805 617.875 629.41 615.152 631.805 609.16 634.137 604.914 635.09 601.656 636.27 591.551 641.949 587.09 645.359 584.438 649.648 584.703 652.117 590.789 659.383 597.723 666.891 598.523 673.5 596.402 678.449 595.996 680.359 597.867 681.078 601.27 681.352 604.188 682.207 605.797 685.688 606.137 691.762 605.828 697.449 605.09 699.844 602.387 700.035 596.859 697.574 592.445 694.715 590.684 692.957 590.348 690.859 591.082 689.531 589.332 686.945 584.035 684.555 578.773 685.594 574.977 687.207 572.402 687.113 569.379 684.812 564.922 683.047 559.227 681.887 555.625 680.645 554.977 681.379 555.922 686.359 555.09 688.531 527.84 691.414 519.715 694.109 513.953 697.602 509.574 699.117 508.684 701.27 504.477 704.098 499.5 705 498.188 704.074 495.066 705.379 489.648 706.641 486.008 706.238 484.098 703.953 480.332 700.453 478.727 698.027 478.719 696.473 470.957 696.16 465.906 694.312 455.602 694.746 452.98 693.965 452.523 694.805 451.875 704.73 450.199 708.805 447.262 713.02 443.215 715.367 439.852 715.793 439.738 712.719 440.266 709.016 437.742 708.148 434.031 707.723 432.156 706.621 432.375 703.809 431.383 702.164 429.691 700.203 425.789 697.664 417.668 693.906 412.203 692.051 410.387 694.027 406.758 696.02 400.723 695.367ZM399.324 696.152"/>
<path transform="matrix(1,0,0,1,-156.9727,-76.02338)" stroke-width=".75" stroke-linecap="round" stroke-linejoin="round" fill="none" stroke="#ff0000" d="M573.547 161.84 575.648 166.938 574.598 169.531 567.926 165.211 561.883 165.27 559.234 171.93 556.582 172.211 546.355 166.164 544.434 163.215 543.77 160.762 543.883 152.285 543.25 149.617 545.754 146.703 545.598 142.5 550.113 138.066 554.672 137.898 556.688 141.652 559.266 144.238 567.43 147.141 568.781 148.457 569.754 150.281 566.688 153.855 565.738 155.688 567.32 158.625ZM573.547 161.84"/>
<path transform="matrix(1,0,0,1,-156.9727,-76.02338)" stroke-width=".75" stroke-linecap="round" stroke-linejoin="round" fill="none" stroke="#ff0000" d="M605.516 194.641 605.168 197.02 606.562 200.695 604.281 200.418 597.723 201.277 590.922 200.062 588.965 195.508 589.359 191.125 586.258 188.113 583.551 186.344 582.809 183.82 582.812 181.207 595.238 188.242ZM605.516 194.641"/>
<path transform="matrix(1,0,0,1,-156.9727,-76.02338)" stroke-width=".75" stroke-linecap="round" stroke-linejoin="round" fill="none" stroke="#ff0000" d="M443.215 159.172 435.012 159.316 431.504 156.293 428.258 155.523 429.504 151.793 431.559 150.438 439.801 152.867 442.887 157.625ZM443.215 159.172"/>
<path transform="matrix(1,0,0,1,-156.9727,-76.02338)" stroke-width=".75" stroke-linecap="round" stroke-linejoin="round" fill="none" stroke="#ff0000" d="M281.344 131.285 280.258 132.785 279.863 122.137 284.621 110.805 287.102 111.059 284.875 114.117 284.352 116.262 283.727 120.547 284.398 122.773 297.727 123.383 296.375 125.371 283.035 126.711ZM281.344 131.285"/>
<path transform="matrix(1,0,0,1,-156.9727,-76.02338)" stroke-width=".75" stroke-linecap="round" stroke-linejoin="round" fill="none" stroke="#ff0000" d="M296.797 136.891 294.895 138.742 289.801 138.523 286.789 136.781 287.539 134.93 290.098 133.516 292.305 133.297 295.766 134.168ZM296.797 136.891"/>
<path transform="matrix(1,0,0,1,-156.9727,-76.02338)" stroke-width=".75" stroke-linecap="round" stroke-linejoin="round" fill="none" stroke="#0000ff" d="M404.004 698.137 393.164 692.816 382.766 687.699 379.516 687.852 365.117 689.633 364.648 689.164 361.824 686.094 359.492 685.188 358.188 685.766 357.371 686.73 355.801 686.645 348.828 681.793 346.102 681.168 342.473 682.012 338.363 684.965 336.766 688.434 337.52 690.363 339.863 691.109 345.734 690.285 346.656 690.809 346.957 691.895 346.402 692.996 341.664 694.086 340.387 695.43 339.004 695.805 338.117 696.043 332.875 694.914 325.234 695.234 319.281 697.883 309.531 699.242 295.984 699.312 290.98 697.727 287.934 696.766 285.387 691.613 285.305 683.836 287.684 673.441 287.961 665.871 286.145 661.129 287.453 653.863 291.863 644.07 294.484 633.824 295.312 623.113 297.227 616.074 301.73 611.012 312.195 596.93 313.047 595.867 312.125 589.102 308.906 588.277 304.148 586.523 292.27 584.602 281.266 583.5 276.176 581.781 271.43 576.832 268.75 576.871 263.66 578.902 257.215 580.391 252.367 579.488 249.406 579.809 247.805 580.816 246.902 580.016 245.367 575.668 242.789 574.613 238.848 573.754 236.477 574.273 234.98 576.512 232.535 578.141 230.145 577.727 222.027 567.855 219.969 565.68 219.336 563.637 217.219 559.93 212.574 556.336 208.129 555.293 205.984 555.789 205.891 551.121 207.121 544.305 208.496 540.723 210.457 537.766 212.609 535.684 212.859 532.043 212.238 528.625 209.551 528.188 202.727 525.883 198.625 523.348 195.473 520.105 191.352 515.629 189.406 511.012 189.004 506.359 189.324 504.266 189.496 502.828 192.047 495.473 202.32 488.617 200.668 482.117 200.223 478.117 197.434 475.582 192.164 474.699 190.66 472.93 189.957 471.172 193.48 467.051 188.664 464.051 186.457 460.852 179.777 456.945 179.004 455.551 181.234 443.441 178.652 440.012 175.625 438.32 172.18 437.555 170.523 435.938 169.852 434.051 170.379 432.852 174.375 433.07 175.512 431.797 184.469 424.43 184.762 423.059 183.391 422.336 181.633 421.984 181.102 420.52 181.023 418.566 185.336 408.23 186.508 403.844 186.617 400.766 186.09 397.75 182.871 393.094 179.797 389.391 179.48 386.371 177.336 384.848 170.988 376.945 170.781 373.812 173.863 371.27 178.301 369.562 179.719 368.23 182.387 367.332 189.773 369.414 193.164 371.328 194.047 370.875 196.801 368.566 201.945 368.727 213.98 363.836 215.656 361.637 216.863 359.32 216.895 358.32 211.762 354.148 211.488 352.543 211.977 350.703 213.211 349.219 215.957 348.133 218.812 346.109 225.078 340.422 227.012 335.625 227.297 330.504 227.117 326.707 225.039 323.766 223.031 321.887 220.535 322.281 215.621 322.316 210.906 320.805 208.176 318.16 207.363 315.777 208.379 314.219 208.574 312.344 207.691 310.5 207.859 308.918 209.812 307.578 224.254 307.051 225.215 305.625 225.57 298.32 228.223 287.109 231.07 280.809 231.41 278.195 230.078 263.598 229.875 256.184 227.133 252.812 221.488 249.227 221.93 241.262 223.152 235.02 227.805 227.207 231.836 224.945 250.129 222.906 270.508 222.488 280.105 233.547 277.551 239.59 282.785 242.098 285.07 240.98 286.363 235.77 286.992 230.035 288.547 228.234 295.281 232.164 297.801 234.961 298.914 244.301 299.91 231.531 297.254 222.758 297.531 214.113 299.574 209.527 301.582 206.566 316.777 208.863 333.008 206.414 339.594 209.383 355.602 225.176 360.621 227.625 366.66 228.145 358.059 225.062 338.652 205.859 333.27 203.641 325.367 203.305 320.277 201.594 316.867 198.715 315.668 196.039 313.578 175.766 310.328 172.902 306.449 172.051 304.258 173.559 299.441 173.824 297.934 169.285 298.738 165.828 308.145 163 314.16 159.551 313.82 154.031 309.32 149.918 303.637 142.234 297.184 135.066 295.598 126.418 295.617 126.426 305.387 126.086 307.812 126.285 323.078 129.547 327.031 132.199 331.602 132.078 339.484 128.961 345.469 127.445 348.043 128.945 351.461 129.438 352.234 129.395 352.734 130.805 360.652 132.418 364.289 135.523 368.508 140.316 369.77 147.5 365.824 152.961 362.41 156.469 376.719 154.363 378.539 157.254 381.141 160.332 388.645 157.566 409.469 165.84 420.672 160.453 423.66 159.984 427.414 167.484 425.539 175.406 416.188 184.332 419.199 189.27 422.707 190.18 432.457 188.461 448.836 192.441 451.879 190.656 462.895 178.207 467.594 175.371 483.98 172.41 486.328 167.711 492.367 162.715 495.938 157.477 504.82 147.336 515.789 148.215 522.328 149.527 529.34 149.902 537.234 159.398 554.926 169.188 569.34 167.047 576.316 177.066 580.836 189.777 586.039 193.453 590.461 195.77 602.898 197.539 603.402 197.672 604.098 199.395 605.965 205.746 607.906 210.98 617.852 231.711 618.648 236.918 618.82 238.305 617.824 245.773 614.844 252.25 610.086 256.152 607.797 260.25 607.977 264.547 616.016 271.445 631.961 280.938 639.277 289.574 637.91 297.391 638.059 303.023 639.734 306.48 642.504 309.133 646.383 310.992 648.355 314.188 648.434 318.723 649.645 321.77 652.652 323.758 652.566 324.637 651.832 327.855 651.082 333.68 650.816 337.902 647.773 343.883 649.828 348.578 653.969 353.973 656.859 356.613 658.086 359.242 657.668 365.777 658.711 367.352 669.543 371.234 671.559 373.277 673.328 377.73 678.543 387.129 677.762 399.656 676.352 406.602 672.438 417.762 672.336 418.77 671.891 420.121 670.484 422.137 668.121 422.617 664.246 421.516 661.449 419.93 661.242 415.273 659.594 415.102 657.137 412.434 655.844 409.457 653.496 408.391 645.484 407.738 642.688 407.051 640.758 407.859 639.594 410.137 640.891 412 642.656 413.781 647.484 416.438 647.238 417.668 638.383 421.328 632.992 424.789 627.785 426.902 622.695 430.438 612.215 434.766 604.258 436.301 602.711 437.348 600.598 443.484 598.746 444.871 596.684 444.375 595.047 443.52 593.285 444.461 591.621 446.559 589.688 447.48 587.895 447.586 585.5 452.977 576.473 455.211 575.781 457.961 574.539 461.188 573.293 462.043 568.922 461.109 563.031 460.836 559.953 462.77 556.098 463.984 551.262 464.605 546.312 468.375 541.848 474.695 539.594 480.156 538.258 482.152 534.957 477.387 531.305 474.211 528.805 472.605 526.793 472.734 526.363 473.488 526.711 476.074 529.457 480.223 532.527 482.977 533.254 485.109 535.23 488.949 539.719 492.988 546.301 495.984 550.941 499.059 554.684 503.5 554.914 504.93 554.332 506.883 553.125 508.773 552.219 511.188 549.48 516.125 550.777 518.121 553.922 520.535 556.824 523.492 560.699 528.328 566.305 536.883 569.629 540.332 573.98 543.832 578.141 546.445 584.047 545.953 590.973 551.008 598.824 558.465 604.371 561.75 608.035 562.609 611.348 565.262 614.52 569.184 615.879 571.488 618.41 573.043 624.52 572.281 633.398 578.176 639.012 582.551 642.18 586.184 641.727 587.746 642.133 592.527 642.973 597.57 642.594 600.293 639.566 604.062 637.84 604.945 636.969 605.773 625.367 601.973 624.617 602.816 624.016 603.43 623.031 616.914 621.383 619.609 618.719 622.168 612.789 624.887 608.574 626.121 605.344 627.508 595.375 633.797 590.992 637.465 588.43 641.867 588.746 644.285 594.973 651.035 602.051 657.969 602.988 664.422 600.965 669.43 600.598 671.336 602.48 671.918 605.887 671.961 608.824 672.605 610.5 675.922 610.961 681.863 610.766 687.473 610.078 689.871 607.379 690.238 601.805 688.191 597.332 685.676 595.535 684.066 595.16 682.027 595.867 680.676 594.066 678.25 588.727 676.246 583.484 677.613 579.719 679.441 577.141 679.516 574.074 677.449 569.586 676 563.867 675.219 560.242 674.23 559.605 674.988 560.648 679.82 559.855 682.008 532.641 686.504 524.559 689.633 518.852 693.395 514.496 695.133 513.641 697.293 509.48 700.305 504.508 701.477 503.18 700.645 500.074 702.098 494.672 703.641 491.016 703.453 489.062 701.324 485.238 698.109 483.586 695.824 483.559 694.305 475.777 694.43 470.688 692.898 460.375 693.879 457.734 693.258 457.289 694.102 456.797 703.84 455.184 707.914 452.301 712.184 448.281 714.688 444.918 715.277 444.758 712.285 445.23 708.641 442.688 707.926 438.961 707.699 437.066 706.719 437.242 703.961 436.223 702.402 434.496 700.574 430.551 698.293 422.359 695.031 416.852 693.488 415.059 695.516 411.453 697.641 405.395 697.301ZM404.004 698.137"/>
<path transform="matrix(1,0,0,1,-156.9727,-76.02338)" stroke-width=".75" stroke-linecap="round" stroke-linejoin="round" fill="none" stroke="#0000ff" d="M565.473 149.246 567.688 154.375 566.734 157.16 560.059 153.203 554.133 153.746 551.734 160.867 549.141 161.367 538.926 155.883 536.953 152.969 536.234 150.473 536.09 141.648 535.395 138.926 537.766 135.699 537.484 131.332 541.777 126.359 546.238 125.824 548.328 129.578 550.934 132.07 559.023 134.438 560.391 135.703 561.398 137.523 558.5 141.492 557.625 143.473 559.266 146.406ZM565.473 149.246"/>
<path transform="matrix(1,0,0,1,-156.9727,-76.02338)" stroke-width=".75" stroke-linecap="round" stroke-linejoin="round" fill="none" stroke="#0000ff" d="M597.844 180.703 597.578 183.199 599.059 186.887 596.809 186.793 590.398 188.219 583.684 187.516 581.625 182.953 581.879 178.379 578.742 175.508 576.031 173.891 575.227 171.332 575.152 168.621 587.562 174.91ZM597.844 180.703"/>
<path transform="matrix(1,0,0,1,-156.9727,-76.02338)" stroke-width=".75" stroke-linecap="round" stroke-linejoin="round" fill="none" stroke="#0000ff" d="M437.43 156.023 429.367 156.711 425.848 153.805 422.637 153.219 423.77 149.273 425.758 147.734 433.918 149.715 437.07 154.441ZM437.43 156.023"/>
<path transform="matrix(1,0,0,1,-156.9727,-76.02338)" stroke-width=".75" stroke-linecap="round" stroke-linejoin="round" fill="none" stroke="#0000ff" d="M277.594 136.441 276.551 138.047 275.969 127.035 280.438 115.043 282.883 115.184 280.75 118.469 280.273 120.719 279.742 125.195 280.441 127.473 293.566 127.438 292.277 129.566 279.172 131.621ZM277.594 136.441"/>
<path transform="matrix(1,0,0,1,-156.9727,-76.02338)" stroke-width=".75" stroke-linecap="round" stroke-linejoin="round" fill="none" stroke="#0000ff" d="M292.906 141.48 291.066 143.492 286.051 143.52 283.055 141.867 283.758 139.91 286.25 138.32 288.418 137.984 291.844 138.715ZM292.906 141.48"/>
</g>
</g>
</g>
</svg>
